<svg xmlns="http://www.w3.org/2000/svg" width="19" height="21.127" viewBox="0 0 19 21.127"><defs><style>.a{fill:#f5f5f5;}</style></defs><path class="a" d="M14.3,11.055,8.016,17.339,4.651,13.974l1.138-1.138,2.227,2.227,5.146-5.146Zm2.573-8.51A2.113,2.113,0,0,1,19,4.672V19.416a2.113,2.113,0,0,1-2.127,2.128H2.127a2.054,2.054,0,0,1-1.509-.619A2.051,2.051,0,0,1,0,19.417V4.672A2.054,2.054,0,0,1,.619,3.163a2.051,2.051,0,0,1,1.509-.618H3.166V.417H5.294V2.544h8.412V.417h2.127V2.544Zm0,16.873V7.839H2.127V19.417Z" transform="translate(0 -0.417)"/></svg>