<svg xmlns="http://www.w3.org/2000/svg" width="19" height="18.021" viewBox="0 0 19 18.021"><defs><style>.a{fill:#f5f5f5;}</style></defs><path class="a" d="M17.087,4.032A1.9,1.9,0,0,1,19,5.946V16.358a1.9,1.9,0,0,1-1.913,1.913H1.913a1.847,1.847,0,0,1-1.357-.556A1.844,1.844,0,0,1,0,16.358V5.946A1.847,1.847,0,0,1,.556,4.588a1.846,1.846,0,0,1,1.357-.556H4.761V2.119A1.794,1.794,0,0,1,5.317.806,1.8,1.8,0,0,1,6.63.25h5.7a1.847,1.847,0,0,1,1.357.556,1.793,1.793,0,0,1,.556,1.312V4.032ZM6.63,2.119V4.032h5.7V2.119ZM17.087,16.358V14.489H1.913v1.869Zm0-4.716v-5.7H14.239V7.815H12.326V5.946H6.63V7.815H4.761V5.946H1.913v5.7Z" transform="translate(0 -0.25)"/></svg>