<svg xmlns="http://www.w3.org/2000/svg" width="20.249" height="19.502" viewBox="0 0 20.249 19.502">
  <g id="edge-enhancement" transform="translate(-10.5 -2.249)">
    <path id="Union_15" data-name="Union 15" d="M8801.521,14092.751a10.142,10.142,0,0,1-9.689-6.748l.017-.008a9.5,9.5,0,0,1-.348-1.314l1.434-.287a8.733,8.733,0,0,0,.638,2.039c.036.082.073.162.117.24s.092.178.14.268a8.847,8.847,0,0,0,8.6,4.373c.074,0,.146-.02.218-.029.22-.027.436-.051.647-.092.093-.018.185-.047.275-.066.188-.045.376-.084.563-.139.121-.037.245-.086.367-.127a8.313,8.313,0,0,0,5.667-9.295,8.637,8.637,0,0,0-8.619-6.922v-1.395a9.986,9.986,0,0,1,10.2,9.75,9.757,9.757,0,0,1-6.273,9v0c-.13.053-.263.09-.392.137-.177.063-.349.129-.531.182s-.387.1-.581.145c-.134.031-.257.066-.391.092-.234.045-.473.074-.715.105-.1.012-.19.033-.292.041a10.047,10.047,0,0,1-1.029.051Zm.024-16.715a6.97,6.97,0,1,1,0,13.926Zm-10.045,5.283a9.548,9.548,0,0,1,1.2-3.191l1.261.691h0a8.352,8.352,0,0,0-1.02,2.74Zm3.447-5.752a10.311,10.311,0,0,1,3.049-1.7l.5,1.309a8.838,8.838,0,0,0-2.61,1.457Z" transform="translate(-8781 -14071)" fill="#f5f5f5"/>
  </g>
</svg>
