<svg xmlns="http://www.w3.org/2000/svg" width="769.797" height="265.071" viewBox="0 0 769.797 265.071"><defs><style>.a{fill:#ebf3fa;}.b{fill:#f8fbff;}.c{fill:#c4d9ed;}.d{fill:#d5e7f7;}.e{fill:#dceaf9;}.f{opacity:0.8;}.g{fill:#adc9e0;}.h{fill:#abc6dd;}.i{fill:#4757d4;}.j,.r{fill:#a8302d;}.j,.t,.u,.x{opacity:0.3;}.k,.t{fill:#101e84;}.l{fill:#7581de;}.m{fill:#15172a;}.n{fill:#2a2e50;}.o{fill:#b5b5b5;}.p,.x{fill:#3343bd;}.q{fill:#a2c2dd;}.s,.u{fill:#717cd1;}.v{fill:#2838ac;}.w{fill:#3947ac;}.y{fill:#f99746;}.z{fill:#a8d29f;}.aa{fill:#d0a157;}.ab{fill:#ebb677;}.ac{fill:#aa411a;}.ad{fill:#c25f2d;}.ae{fill:#3e6c92;}.af{fill:#ffd5a3;}.ag{fill:#683c11;}.ah{fill:#1d1715;}.ai{fill:#3a556e;}.aj{fill:#30597b;}.ak{fill:#f6f6f6;}.al{fill:#ffcc75;}.am{fill:#f9c484;}.an{fill:#ededed;}.ao{fill:#fb662c;}</style></defs><g transform="translate(-155.21 -283.073)"><path class="a" d="M835.01,718.621s-34.651.056-87.5.169c-154.747.282-465.621.789-519.851.535-72.767-.338-123.11-188.637,12.959-175.847,147.788,13.86,39.694-70.937,126.744-84.994,94.742-15.326,113.842,43.61,181.876,19.523,92.994-32.933,143.506-21.467,175.875,2.564,35.5,26.369,49.1,67.866,72.936,82.374q.8.507,1.606.929c46.315,25.355,67.274,49.892,74.12,71.669C889.043,683.858,835.01,718.621,835.01,718.621Z" transform="translate(0 -172.83)"/><path class="b" d="M1559.222,633.656l-351.046,59.693-26.214-31.433,304.31-110.637C1521.774,577.648,1535.392,619.134,1559.222,633.656Z" transform="translate(-761.164 -243.535)"/><path class="b" d="M924.936,583.007,577.554,694.949c10.234-7.459-13.3-47.9.515-61.323Z" transform="translate(-310.16 -267.056)"/><path class="b" d="M2073.047,510.012a8.373,8.373,0,1,0,8.373,8.373A8.373,8.373,0,0,0,2073.047,510.012Z" transform="translate(-1415.547 -212.942)"/><g transform="translate(289.104 324.345)"><g transform="translate(260.019 0)"><rect class="c" width="39.635" height="192.741" transform="translate(0 0.051)"/><rect class="d" width="39.635" height="192.741" transform="translate(8.902 0.051)"/><rect class="c" width="39.625" height="11.138" transform="translate(48.537 11.138) rotate(180)"/><rect class="c" width="39.625" height="11.137" transform="translate(48.537 35.294) rotate(180)"/><rect class="c" width="39.625" height="11.138" transform="translate(48.537 59.45) rotate(180)"/><rect class="c" width="39.625" height="11.138" transform="translate(48.537 83.606) rotate(180)"/><rect class="c" width="39.625" height="11.138" transform="translate(48.537 107.761) rotate(180)"/><rect class="c" width="39.625" height="11.138" transform="translate(48.537 131.917) rotate(180)"/><rect class="c" width="39.625" height="11.138" transform="translate(48.537 156.074) rotate(180)"/><rect class="c" width="39.625" height="11.138" transform="translate(48.537 180.229) rotate(180)"/></g><g transform="translate(323.379 27.281)"><rect class="c" width="39.635" height="165.468" transform="translate(0 0.044)"/><rect class="d" width="39.635" height="165.468" transform="translate(8.902 0.044)"/><rect class="c" width="39.625" height="9.562" transform="translate(48.537 9.562) rotate(180)"/><rect class="c" width="39.625" height="9.562" transform="translate(48.537 30.299) rotate(180)"/><rect class="c" width="39.625" height="9.561" transform="translate(48.537 51.037) rotate(180)"/><rect class="c" width="39.625" height="9.562" transform="translate(48.537 71.775) rotate(180)"/><rect class="c" width="39.625" height="9.562" transform="translate(48.537 92.513) rotate(180)"/><rect class="c" width="39.625" height="9.562" transform="translate(48.537 113.251) rotate(180)"/><rect class="c" width="39.625" height="9.562" transform="translate(48.537 133.988) rotate(180)"/><rect class="c" width="39.625" height="9.562" transform="translate(48.537 154.726) rotate(180)"/></g><rect class="e" width="16.597" height="24.203" transform="translate(255.165 211.083) rotate(180)"/><path class="d" d="M916.475,851.234v67.2H740.663l-1.2-.011L694.6,918c-.037-.065-.083-.144-.136-.234-.074-.129-.161-.282-.262-.456-.033-.062-.07-.125-.109-.192-.133-.238-.284-.507-.452-.815-.205-.373-.435-.8-.688-1.273v0c-.944-1.77-2.2-4.223-3.617-7.27q-.7-1.5-1.45-3.193c-.2-.45-.4-.906-.6-1.374v0q-.295-.678-.59-1.385l-.02-.046q-.2-.485-.411-.985c-.144-.34-.286-.686-.43-1.035-.734-1.8-1.485-3.72-2.232-5.741-.02-.052-.04-.107-.059-.159v0q-.734-1.983-1.459-4.093-.4-1.161-.791-2.355c-.015-.048-.033-.1-.048-.148-.115-.354-.229-.708-.345-1.066-.1-.3-.192-.6-.286-.906q-.295-.937-.588-1.894-.374-1.229-.738-2.493-.492-1.713-.961-3.486c-.094-.354-.188-.71-.28-1.066q-.413-1.6-.808-3.244c-.085-.352-.168-.7-.249-1.057-.053-.218-.1-.437-.153-.655q-.593-2.6-1.121-5.295-.58-2.968-1.061-6.048-.443-2.841-.791-5.769-.328-2.762-.555-5.59c-.358-4.41-.522-8.938-.452-13.549a126.189,126.189,0,0,1,2.772-24.7c.066-.306.134-.61.2-.915q.672-2.995,1.509-6,.639-2.29,1.383-4.585.541-1.662,1.136-3.327,1.349-3.768,3-7.534h.939V785.97a126.213,126.213,0,0,1,27.425-37.89l.705-.677h.736v25.7h22.748V731.224h25.1v27.189h5.723V725.953h25.1v60.858h31.746V822.3h11.861v8.94h27.246V815.843h15.642V774.011h19.323v77.223Z" transform="translate(-672.838 -697.372)"/><rect class="c" width="25.114" height="6.2" transform="translate(118.512 38.89) rotate(180)"/><rect class="c" width="25.114" height="6.201" transform="translate(118.512 50.54) rotate(180)"/><rect class="c" width="25.114" height="6.201" transform="translate(118.512 61.02) rotate(180)"/><rect class="c" width="25.115" height="6.201" transform="translate(87.694 61.02) rotate(180)"/><rect class="c" width="25.115" height="6.201" transform="translate(87.694 50.54) rotate(180)"/><rect class="c" width="25.115" height="6.201" transform="translate(87.694 40.075) rotate(180)"/><rect class="c" width="55.939" height="6.201" transform="translate(118.512 71.181) rotate(180)"/><rect class="c" width="55.939" height="6.201" transform="translate(118.512 81.343) rotate(180)"/><rect class="c" width="19.493" height="9.571" transform="translate(224.305 86.215) rotate(180)"/><rect class="c" width="19.493" height="9.571" transform="translate(224.305 100.45) rotate(180)"/><rect class="c" width="19.493" height="9.571" transform="translate(224.305 114.684) rotate(180)"/><rect class="c" width="19.493" height="9.572" transform="translate(224.305 129.606) rotate(180)"/><rect class="c" width="19.493" height="9.572" transform="translate(224.305 144.064) rotate(180)"/><rect class="c" width="19.493" height="9.571" transform="translate(224.305 158.523) rotate(180)"/><rect class="c" width="19.493" height="9.571" transform="translate(224.305 173.649) rotate(180)"/><rect class="c" width="55.939" height="3.936" transform="translate(118.512 89.009) rotate(180)"/><rect class="c" width="7.187" height="41.828" transform="translate(197.896 76.644)"/><rect class="c" width="14.457" height="15.395" transform="translate(174.891 118.472)"/><path class="c" d="M900.472,746.415v6.2l0,24.9,0,6.2v4.554h-4.982V746.908l.67-.493Z" transform="translate(-837.892 -712.541)"/><rect class="c" width="3.063" height="32.438" transform="translate(90.334 28.582)"/><g class="f" transform="translate(2.76 95.545)"><g transform="translate(3.12 0)"><g transform="translate(66.058)"><g transform="translate(38.232)"><rect class="c" width="4.255" height="5.998" transform="translate(34.884 5.998) rotate(180)"/><rect class="c" width="4.255" height="5.998" transform="translate(26.927 5.998) rotate(180)"/><rect class="c" width="4.255" height="5.998" transform="translate(19.148 5.998) rotate(180)"/><rect class="c" width="4.255" height="5.998" transform="translate(11.772 5.998) rotate(180)"/><rect class="c" width="4.255" height="5.998" transform="translate(4.255 5.998) rotate(180)"/></g><g transform="translate(0)"><rect class="c" width="4.255" height="5.998" transform="translate(34.884 5.998) rotate(180)"/><rect class="c" width="4.255" height="5.998" transform="translate(26.927 5.998) rotate(180)"/><rect class="c" width="4.255" height="5.998" transform="translate(19.148 5.998) rotate(180)"/><rect class="c" width="4.255" height="5.998" transform="translate(11.772 5.998) rotate(180)"/><rect class="c" width="4.255" height="5.998" transform="translate(4.255 5.998) rotate(180)"/></g></g><g transform="translate(27.595)"><rect class="c" width="4.255" height="5.998" transform="translate(34.884 5.998) rotate(180)"/><rect class="c" width="4.255" height="5.998" transform="translate(26.927 5.998) rotate(180)"/><rect class="c" width="4.255" height="5.998" transform="translate(19.148 5.998) rotate(180)"/><rect class="c" width="4.255" height="5.998" transform="translate(11.772 5.998) rotate(180)"/><rect class="c" width="4.255" height="5.998" transform="translate(4.255 5.998) rotate(180)"/></g><rect class="c" width="4.255" height="5.998" transform="translate(24.247 5.998) rotate(180)"/><rect class="c" width="4.255" height="5.998" transform="translate(16.29 5.998) rotate(180)"/><rect class="c" width="4.255" height="5.998" transform="translate(8.511 5.998) rotate(180)"/><path class="c" d="M696.709,995.159v3.327h-1.136Q696.114,996.824,696.709,995.159Z" transform="translate(-695.573 -992.488)"/></g><g transform="translate(0.228 10.583)"><g transform="translate(68.95 0.001)"><g transform="translate(38.232 0)"><rect class="c" width="4.255" height="5.998" transform="translate(34.884 5.998) rotate(180)"/><rect class="c" width="4.255" height="5.998" transform="translate(26.927 5.998) rotate(180)"/><rect class="c" width="4.255" height="5.998" transform="translate(19.148 5.998) rotate(180)"/><rect class="c" width="4.255" height="5.998" transform="translate(11.772 5.998) rotate(180)"/><rect class="c" width="4.255" height="5.998" transform="translate(4.255 5.998) rotate(180)"/></g><g transform="translate(0 0)"><rect class="c" width="4.255" height="5.998" transform="translate(34.884 5.998) rotate(180)"/><rect class="c" width="4.255" height="5.998" transform="translate(26.927 5.998) rotate(180)"/><rect class="c" width="4.255" height="5.998" transform="translate(19.148 5.998) rotate(180)"/><rect class="c" width="4.255" height="5.998" transform="translate(11.772 5.998) rotate(180)"/><rect class="c" width="4.255" height="5.998" transform="translate(4.255 5.998) rotate(180)"/></g></g><g transform="translate(30.487 0.001)"><rect class="c" width="4.255" height="5.998" transform="translate(34.884 5.998) rotate(180)"/><rect class="c" width="4.255" height="5.998" transform="translate(26.927 5.998) rotate(180)"/><rect class="c" width="4.255" height="5.998" transform="translate(19.148 5.998) rotate(180)"/><rect class="c" width="4.255" height="5.998" transform="translate(11.772 5.998) rotate(180)"/><rect class="c" width="4.255" height="5.998" transform="translate(4.255 5.998) rotate(180)"/></g><rect class="c" width="4.255" height="5.998" transform="translate(27.139 5.998) rotate(180)"/><rect class="c" width="4.255" height="5.998" transform="translate(19.181 5.998) rotate(180)"/><rect class="c" width="4.255" height="5.998" transform="translate(11.402 5.998) rotate(180)"/><path class="c" d="M688.421,1025.745v6h-4.028q.672-2.995,1.509-6Z" transform="translate(-684.393 -1025.745)"/></g><g transform="translate(0 21.005)"><g transform="translate(69.178)"><g transform="translate(38.232)"><rect class="c" width="4.255" height="5.998" transform="translate(34.884 5.998) rotate(180)"/><rect class="c" width="4.255" height="5.998" transform="translate(26.927 5.998) rotate(180)"/><rect class="c" width="4.255" height="5.998" transform="translate(19.148 5.998) rotate(180)"/><rect class="c" width="4.255" height="5.998" transform="translate(11.772 5.998) rotate(180)"/><rect class="c" width="4.255" height="5.998" transform="translate(4.255 5.998) rotate(180)"/></g><g transform="translate(0)"><rect class="c" width="4.255" height="5.998" transform="translate(34.884 5.998) rotate(180)"/><rect class="c" width="4.255" height="5.998" transform="translate(26.927 5.998) rotate(180)"/><rect class="c" width="4.255" height="5.998" transform="translate(19.148 5.998) rotate(180)"/><rect class="c" width="4.255" height="5.998" transform="translate(11.772 5.998) rotate(180)"/><rect class="c" width="4.255" height="5.998" transform="translate(4.255 5.998) rotate(180)"/></g></g><g transform="translate(30.716)"><rect class="c" width="4.255" height="5.998" transform="translate(34.884 5.998) rotate(180)"/><rect class="c" width="4.255" height="5.998" transform="translate(26.927 5.998) rotate(180)"/><rect class="c" width="4.255" height="5.998" transform="translate(19.148 5.998) rotate(180)"/><rect class="c" width="4.255" height="5.998" transform="translate(11.772 5.998) rotate(180)"/><rect class="c" width="4.255" height="5.998" transform="translate(4.255 5.998) rotate(180)"/></g><rect class="c" width="4.255" height="5.998" transform="translate(27.367 5.998) rotate(180)"/><rect class="c" width="4.255" height="5.998" transform="translate(19.41 5.998) rotate(180)"/><rect class="c" width="4.255" height="5.998" transform="translate(11.631 5.998) rotate(180)"/><rect class="c" width="4.255" height="5.998" transform="translate(4.255 5.998) rotate(180)"/></g><g transform="translate(0 32.078)"><g transform="translate(0 0)"><g transform="translate(69.178)"><g transform="translate(38.232)"><rect class="c" width="4.255" height="5.998" transform="translate(34.884 5.998) rotate(180)"/><rect class="c" width="4.255" height="5.998" transform="translate(26.927 5.998) rotate(180)"/><rect class="c" width="4.255" height="5.998" transform="translate(19.148 5.998) rotate(180)"/><rect class="c" width="4.255" height="5.998" transform="translate(11.772 5.998) rotate(180)"/><rect class="c" width="4.255" height="5.998" transform="translate(4.255 5.998) rotate(180)"/></g><g transform="translate(0)"><rect class="c" width="4.255" height="5.998" transform="translate(34.884 5.998) rotate(180)"/><rect class="c" width="4.255" height="5.998" transform="translate(26.927 5.998) rotate(180)"/><rect class="c" width="4.255" height="5.998" transform="translate(19.148 5.998) rotate(180)"/><rect class="c" width="4.255" height="5.998" transform="translate(11.772 5.998) rotate(180)"/><rect class="c" width="4.255" height="5.998" transform="translate(4.255 5.998) rotate(180)"/></g></g><g transform="translate(30.716)"><rect class="c" width="4.255" height="5.998" transform="translate(34.884 5.998) rotate(180)"/><rect class="c" width="4.255" height="5.998" transform="translate(26.927 5.998) rotate(180)"/><rect class="c" width="4.255" height="5.998" transform="translate(19.148 5.998) rotate(180)"/><rect class="c" width="4.255" height="5.998" transform="translate(11.772 5.998) rotate(180)"/><rect class="c" width="4.255" height="5.998" transform="translate(4.255 5.998) rotate(180)"/></g><rect class="c" width="4.255" height="5.998" transform="translate(27.367 5.998) rotate(180)"/><rect class="c" width="4.255" height="5.998" transform="translate(19.41 5.998) rotate(180)"/><rect class="c" width="4.255" height="5.998" transform="translate(11.631 5.998) rotate(180)"/><rect class="c" width="4.255" height="5.998" transform="translate(4.255 5.998) rotate(180)"/></g><g transform="translate(0 10.584)"><g transform="translate(69.178 0)"><g transform="translate(38.232)"><rect class="c" width="4.255" height="5.998" transform="translate(34.884 5.998) rotate(180)"/><rect class="c" width="4.255" height="5.998" transform="translate(26.927 5.998) rotate(180)"/><rect class="c" width="4.255" height="5.998" transform="translate(19.148 5.998) rotate(180)"/><rect class="c" width="4.255" height="5.998" transform="translate(11.772 5.998) rotate(180)"/><rect class="c" width="4.255" height="5.998" transform="translate(4.255 5.998) rotate(180)"/></g><g transform="translate(0)"><rect class="c" width="4.255" height="5.998" transform="translate(34.884 5.998) rotate(180)"/><rect class="c" width="4.255" height="5.998" transform="translate(26.927 5.998) rotate(180)"/><rect class="c" width="4.255" height="5.998" transform="translate(19.148 5.998) rotate(180)"/><rect class="c" width="4.255" height="5.998" transform="translate(11.772 5.998) rotate(180)"/><rect class="c" width="4.255" height="5.998" transform="translate(4.255 5.998) rotate(180)"/></g></g><g transform="translate(0 0)"><g transform="translate(30.716)"><rect class="c" width="4.255" height="5.998" transform="translate(34.884 5.998) rotate(180)"/><rect class="c" width="4.255" height="5.998" transform="translate(26.927 5.998) rotate(180)"/><rect class="c" width="4.255" height="5.998" transform="translate(19.148 5.998) rotate(180)"/><rect class="c" width="4.255" height="5.998" transform="translate(11.772 5.998) rotate(180)"/><rect class="c" width="4.255" height="5.998" transform="translate(4.255 5.998) rotate(180)"/></g><rect class="c" width="4.255" height="5.998" transform="translate(27.367 5.998) rotate(180)"/><rect class="c" width="4.255" height="5.998" transform="translate(19.41 5.998) rotate(180)"/><rect class="c" width="4.255" height="5.998" transform="translate(11.631 5.998) rotate(180)"/><rect class="c" width="4.255" height="5.998" transform="translate(4.255 5.998) rotate(180)"/></g></g><g transform="translate(0 21.005)"><g transform="translate(69.178 0)"><g transform="translate(38.232)"><rect class="c" width="4.255" height="5.998" transform="translate(34.884 5.998) rotate(180)"/><rect class="c" width="4.255" height="5.998" transform="translate(26.927 5.998) rotate(180)"/><rect class="c" width="4.255" height="5.998" transform="translate(19.148 5.998) rotate(180)"/><rect class="c" width="4.255" height="5.998" transform="translate(11.772 5.998) rotate(180)"/><rect class="c" width="4.255" height="5.998" transform="translate(4.255 5.998) rotate(180)"/></g><g transform="translate(0)"><rect class="c" width="4.255" height="5.998" transform="translate(34.884 5.998) rotate(180)"/><rect class="c" width="4.255" height="5.998" transform="translate(26.927 5.998) rotate(180)"/><rect class="c" width="4.255" height="5.998" transform="translate(19.148 5.998) rotate(180)"/><rect class="c" width="4.255" height="5.998" transform="translate(11.772 5.998) rotate(180)"/><rect class="c" width="4.255" height="5.998" transform="translate(4.255 5.998) rotate(180)"/></g></g><g transform="translate(0 0)"><g transform="translate(30.716)"><rect class="c" width="4.255" height="5.998" transform="translate(34.884 5.998) rotate(180)"/><rect class="c" width="4.255" height="5.998" transform="translate(26.927 5.998) rotate(180)"/><rect class="c" width="4.255" height="5.998" transform="translate(19.148 5.998) rotate(180)"/><rect class="c" width="4.255" height="5.998" transform="translate(11.772 5.998) rotate(180)"/><rect class="c" width="4.255" height="5.998" transform="translate(4.255 5.998) rotate(180)"/></g><rect class="c" width="4.255" height="5.998" transform="translate(27.367 5.998) rotate(180)"/><rect class="c" width="4.255" height="5.998" transform="translate(19.41 5.998) rotate(180)"/><rect class="c" width="4.255" height="5.998" transform="translate(11.631 5.998) rotate(180)"/><rect class="c" width="4.255" height="5.998" transform="translate(4.255 5.998) rotate(180)"/></g></g></g></g><rect class="c" width="98.625" height="53.206" transform="translate(174.891 220.625) rotate(180)"/><rect class="c" width="98.624" height="26.603" transform="translate(249.676 220.625) rotate(180)"/><path class="c" d="M753.8,1294.74v44.917H707.2c-.037-.065-.083-.144-.135-.234l-.262-.456c-.033-.062-.07-.125-.109-.192-.133-.238-.284-.507-.452-.815-.205-.373-.435-.8-.688-1.273v0c-.944-1.77-2.2-4.223-3.618-7.27q-.7-1.5-1.45-3.193c-.2-.45-.4-.906-.6-1.374v0q-.295-.678-.59-1.385l-.02-.046q-.2-.485-.411-.985c-.144-.34-.286-.686-.43-1.035-.734-1.8-1.485-3.72-2.232-5.741-.02-.052-.04-.107-.059-.159v0q-.735-1.983-1.459-4.093-.4-1.161-.791-2.355c-.015-.048-.033-.1-.048-.149-.115-.354-.229-.708-.345-1.066-.1-.3-.192-.6-.286-.906q-.295-.937-.588-1.894-.374-1.229-.738-2.493-.492-1.714-.961-3.486c-.094-.354-.188-.71-.28-1.066q-.413-1.6-.808-3.244Z" transform="translate(-685.442 -1119.031)"/><rect class="d" width="18.375" height="9.854" transform="translate(168.303 183.503) rotate(180)"/><rect class="d" width="18.375" height="9.854" transform="translate(144.715 183.503) rotate(180)"/><rect class="d" width="18.375" height="9.854" transform="translate(121.577 183.503) rotate(180)"/><rect class="d" width="18.376" height="9.854" transform="translate(98.884 183.503) rotate(180)"/><rect class="g" width="9.466" height="53.664" transform="translate(77.291 221.083) rotate(180)"/><rect class="e" width="0.513" height="4.165" transform="translate(220.425 76.644) rotate(180)"/><rect class="e" width="0.513" height="4.165" transform="translate(202.007 76.644) rotate(180)"/><path class="d" d="M676.793,1221.964q.344,2.926.791,5.769.478,3.076,1.061,6.048.525,2.7,1.121,5.295c.05.219.1.437.153.655.081.354.164.706.249,1.057q.393,1.642.808,3.244c.092.356.186.712.28,1.066q.469,1.773.961,3.486.363,1.262.738,2.493.291.957.588,1.894c.094.3.19.605.286.906.116.358.23.712.345,1.066.016.052.033.1.048.148q.393,1.2.791,2.355.724,2.11,1.459,4.093v0c.019.053.039.107.059.159.747,2.021,1.5,3.936,2.232,5.741.144.349.287.695.43,1.035s.275.662.411.985l.02.046v-47.545Z" transform="translate(-675.77 -1065.08)"/><g transform="translate(2.875 168.701)"><path class="d" d="M698.582,1290.652v29.777l-.02-.046q-.2-.485-.411-.985c-.144-.34-.286-.686-.43-1.035-.734-1.8-1.485-3.72-2.232-5.741-.02-.052-.04-.107-.059-.159v0q-.735-1.983-1.459-4.093-.4-1.161-.791-2.355c-.015-.048-.033-.1-.048-.149-.115-.354-.229-.708-.345-1.066-.1-.3-.192-.6-.286-.906q-.295-.937-.588-1.894-.374-1.229-.738-2.493-.492-1.713-.961-3.486c-.094-.354-.188-.71-.28-1.066q-.413-1.6-.808-3.244c-.085-.352-.168-.7-.249-1.057Z" transform="translate(-687.603 -1284.702)"/><path class="c" d="M694.932,1267.649v14.8h-7.407q-.492-1.714-.961-3.486c-.094-.354-.188-.71-.28-1.066q-.413-1.6-.808-3.244c-.085-.352-.168-.7-.249-1.057-.052-.218-.1-.437-.153-.655q-.593-2.6-1.121-5.295Z" transform="translate(-683.953 -1267.649)"/><g transform="translate(4.898 19.19)"><path class="c" d="M704.357,1341.836v4.476q-.4-1.161-.791-2.355c-.015-.048-.033-.1-.048-.148-.115-.354-.229-.708-.345-1.066-.1-.3-.192-.6-.286-.906Z" transform="translate(-702.887 -1341.836)"/></g><rect class="g" width="2.923" height="5.056" transform="translate(5.813 9.215) rotate(180)"/></g><g transform="translate(231.006 168.702)"><rect class="d" width="67.717" height="45.541" transform="translate(67.717 51.491) rotate(180)"/><rect class="c" width="67.717" height="14.802" transform="translate(67.717 14.802) rotate(180)"/><g transform="translate(3.347 19.188)"><g transform="translate(0 0)"><g transform="translate(31.248)"><rect class="c" width="3.478" height="4.902" transform="translate(28.512 4.902) rotate(180)"/><rect class="c" width="3.478" height="4.902" transform="translate(22.008 4.902) rotate(180)"/><rect class="c" width="3.478" height="4.902" transform="translate(15.65 4.902) rotate(180)"/><rect class="c" width="3.478" height="4.902" transform="translate(9.622 4.902) rotate(180)"/><rect class="c" width="3.478" height="4.902" transform="translate(3.478 4.902) rotate(180)"/></g><rect class="c" width="3.478" height="4.902" transform="translate(28.512 4.902) rotate(180)"/><rect class="c" width="3.478" height="4.902" transform="translate(22.008 4.902) rotate(180)"/><rect class="c" width="3.478" height="4.902" transform="translate(15.65 4.902) rotate(180)"/><rect class="c" width="3.478" height="4.902" transform="translate(9.622 4.902) rotate(180)"/><rect class="c" width="3.478" height="4.902" transform="translate(3.478 4.902) rotate(180)"/></g><g transform="translate(0 8.651)"><g transform="translate(31.248 0)"><rect class="c" width="3.478" height="4.902" transform="translate(28.512 4.902) rotate(180)"/><rect class="c" width="3.478" height="4.902" transform="translate(22.008 4.902) rotate(180)"/><rect class="c" width="3.478" height="4.902" transform="translate(15.65 4.902) rotate(180)"/><rect class="c" width="3.478" height="4.902" transform="translate(9.622 4.902) rotate(180)"/><rect class="c" width="3.478" height="4.902" transform="translate(3.478 4.902) rotate(180)"/></g><g transform="translate(0 0)"><rect class="c" width="3.478" height="4.902" transform="translate(28.512 4.902) rotate(180)"/><rect class="c" width="3.478" height="4.902" transform="translate(22.008 4.902) rotate(180)"/><rect class="c" width="3.478" height="4.902" transform="translate(15.65 4.902) rotate(180)"/><rect class="c" width="3.478" height="4.902" transform="translate(9.622 4.902) rotate(180)"/><rect class="c" width="3.478" height="4.902" transform="translate(3.478 4.902) rotate(180)"/></g></g><g transform="translate(0 17.168)"><g transform="translate(31.248 0)"><rect class="c" width="3.478" height="4.902" transform="translate(28.512 4.902) rotate(180)"/><rect class="c" width="3.478" height="4.902" transform="translate(22.008 4.902) rotate(180)"/><rect class="c" width="3.478" height="4.902" transform="translate(15.65 4.902) rotate(180)"/><rect class="c" width="3.478" height="4.902" transform="translate(9.622 4.902) rotate(180)"/><rect class="c" width="3.478" height="4.902" transform="translate(3.478 4.902) rotate(180)"/></g><g transform="translate(0 0)"><rect class="c" width="3.478" height="4.902" transform="translate(28.512 4.902) rotate(180)"/><rect class="c" width="3.478" height="4.902" transform="translate(22.008 4.902) rotate(180)"/><rect class="c" width="3.478" height="4.902" transform="translate(15.65 4.902) rotate(180)"/><rect class="c" width="3.478" height="4.902" transform="translate(9.622 4.902) rotate(180)"/><rect class="c" width="3.478" height="4.902" transform="translate(3.478 4.902) rotate(180)"/></g></g></g><rect class="g" width="2.923" height="5.056" transform="translate(62.551 9.215) rotate(180)"/><rect class="g" width="2.922" height="5.056" transform="translate(33.537 9.215) rotate(180)"/><rect class="g" width="2.923" height="5.056" transform="translate(10.457 9.215) rotate(180)"/></g><g transform="translate(302.976 168.702)"><rect class="d" width="67.717" height="45.541" transform="translate(67.717 51.491) rotate(180)"/><rect class="c" width="67.717" height="14.802" transform="translate(67.717 14.802) rotate(180)"/><g transform="translate(3.346 19.188)"><g transform="translate(0 0)"><g transform="translate(31.248)"><rect class="c" width="3.478" height="4.902" transform="translate(28.512 4.902) rotate(180)"/><rect class="c" width="3.478" height="4.902" transform="translate(22.009 4.902) rotate(180)"/><rect class="c" width="3.478" height="4.902" transform="translate(15.65 4.902) rotate(180)"/><rect class="c" width="3.478" height="4.902" transform="translate(9.622 4.902) rotate(180)"/><rect class="c" width="3.478" height="4.902" transform="translate(3.478 4.902) rotate(180)"/></g><rect class="c" width="3.478" height="4.902" transform="translate(28.512 4.902) rotate(180)"/><rect class="c" width="3.478" height="4.902" transform="translate(22.008 4.902) rotate(180)"/><rect class="c" width="3.478" height="4.902" transform="translate(15.65 4.902) rotate(180)"/><rect class="c" width="3.478" height="4.902" transform="translate(9.622 4.902) rotate(180)"/><rect class="c" width="3.478" height="4.902" transform="translate(3.478 4.902) rotate(180)"/></g><g transform="translate(0 8.651)"><g transform="translate(31.248 0)"><rect class="c" width="3.478" height="4.902" transform="translate(28.512 4.902) rotate(180)"/><rect class="c" width="3.478" height="4.902" transform="translate(22.009 4.902) rotate(180)"/><rect class="c" width="3.478" height="4.902" transform="translate(15.65 4.902) rotate(180)"/><rect class="c" width="3.478" height="4.902" transform="translate(9.622 4.902) rotate(180)"/><rect class="c" width="3.478" height="4.902" transform="translate(3.478 4.902) rotate(180)"/></g><g transform="translate(0 0)"><rect class="c" width="3.478" height="4.902" transform="translate(28.512 4.902) rotate(180)"/><rect class="c" width="3.478" height="4.902" transform="translate(22.008 4.902) rotate(180)"/><rect class="c" width="3.478" height="4.902" transform="translate(15.65 4.902) rotate(180)"/><rect class="c" width="3.478" height="4.902" transform="translate(9.622 4.902) rotate(180)"/><rect class="c" width="3.478" height="4.902" transform="translate(3.478 4.902) rotate(180)"/></g></g><g transform="translate(0 17.168)"><g transform="translate(31.248 0)"><rect class="c" width="3.478" height="4.902" transform="translate(28.512 4.902) rotate(180)"/><rect class="c" width="3.478" height="4.902" transform="translate(22.009 4.902) rotate(180)"/><rect class="c" width="3.478" height="4.902" transform="translate(15.65 4.902) rotate(180)"/><rect class="c" width="3.478" height="4.902" transform="translate(9.622 4.902) rotate(180)"/><rect class="c" width="3.478" height="4.902" transform="translate(3.478 4.902) rotate(180)"/></g><g transform="translate(0 0)"><rect class="c" width="3.478" height="4.902" transform="translate(28.512 4.902) rotate(180)"/><rect class="c" width="3.478" height="4.902" transform="translate(22.008 4.902) rotate(180)"/><rect class="c" width="3.478" height="4.902" transform="translate(15.65 4.902) rotate(180)"/><rect class="c" width="3.478" height="4.902" transform="translate(9.622 4.902) rotate(180)"/><rect class="c" width="3.478" height="4.902" transform="translate(3.478 4.902) rotate(180)"/></g></g></g><rect class="g" width="2.922" height="5.056" transform="translate(62.551 9.215) rotate(180)"/><rect class="g" width="2.923" height="5.056" transform="translate(33.537 9.215) rotate(180)"/><rect class="g" width="2.922" height="5.056" transform="translate(10.457 9.215) rotate(180)"/></g><g transform="translate(444.714 168.702)"><rect class="d" width="67.717" height="45.541" transform="translate(67.717 51.491) rotate(180)"/><rect class="c" width="67.717" height="14.802" transform="translate(67.717 14.802) rotate(180)"/><g transform="translate(3.347 19.188)"><g transform="translate(0 0)"><g transform="translate(31.248)"><rect class="c" width="3.478" height="4.902" transform="translate(28.512 4.902) rotate(180)"/><rect class="c" width="3.478" height="4.902" transform="translate(22.008 4.902) rotate(180)"/><rect class="c" width="3.478" height="4.902" transform="translate(15.65 4.902) rotate(180)"/><rect class="c" width="3.478" height="4.902" transform="translate(9.622 4.902) rotate(180)"/><rect class="c" width="3.478" height="4.902" transform="translate(3.478 4.902) rotate(180)"/></g><rect class="c" width="3.478" height="4.902" transform="translate(28.512 4.902) rotate(180)"/><rect class="c" width="3.478" height="4.902" transform="translate(22.008 4.902) rotate(180)"/><rect class="c" width="3.478" height="4.902" transform="translate(15.65 4.902) rotate(180)"/><rect class="c" width="3.478" height="4.902" transform="translate(9.622 4.902) rotate(180)"/><rect class="c" width="3.478" height="4.902" transform="translate(3.478 4.902) rotate(180)"/></g><g transform="translate(0 8.651)"><g transform="translate(31.248 0)"><rect class="c" width="3.478" height="4.902" transform="translate(28.512 4.902) rotate(180)"/><rect class="c" width="3.478" height="4.902" transform="translate(22.008 4.902) rotate(180)"/><rect class="c" width="3.478" height="4.902" transform="translate(15.65 4.902) rotate(180)"/><rect class="c" width="3.478" height="4.902" transform="translate(9.622 4.902) rotate(180)"/><rect class="c" width="3.478" height="4.902" transform="translate(3.478 4.902) rotate(180)"/></g><g transform="translate(0 0)"><rect class="c" width="3.478" height="4.902" transform="translate(28.512 4.902) rotate(180)"/><rect class="c" width="3.478" height="4.902" transform="translate(22.008 4.902) rotate(180)"/><rect class="c" width="3.478" height="4.902" transform="translate(15.65 4.902) rotate(180)"/><rect class="c" width="3.478" height="4.902" transform="translate(9.622 4.902) rotate(180)"/><rect class="c" width="3.478" height="4.902" transform="translate(3.478 4.902) rotate(180)"/></g></g><g transform="translate(0 17.168)"><g transform="translate(31.248 0)"><rect class="c" width="3.478" height="4.902" transform="translate(28.512 4.902) rotate(180)"/><rect class="c" width="3.478" height="4.902" transform="translate(22.008 4.902) rotate(180)"/><rect class="c" width="3.478" height="4.902" transform="translate(15.65 4.902) rotate(180)"/><rect class="c" width="3.478" height="4.902" transform="translate(9.622 4.902) rotate(180)"/><rect class="c" width="3.478" height="4.902" transform="translate(3.478 4.902) rotate(180)"/></g><g transform="translate(0 0)"><rect class="c" width="3.478" height="4.902" transform="translate(28.512 4.902) rotate(180)"/><rect class="c" width="3.478" height="4.902" transform="translate(22.008 4.902) rotate(180)"/><rect class="c" width="3.478" height="4.902" transform="translate(15.65 4.902) rotate(180)"/><rect class="c" width="3.478" height="4.902" transform="translate(9.622 4.902) rotate(180)"/><rect class="c" width="3.478" height="4.902" transform="translate(3.478 4.902) rotate(180)"/></g></g></g><rect class="g" width="2.922" height="5.056" transform="translate(62.551 9.215) rotate(180)"/><rect class="g" width="2.922" height="5.056" transform="translate(33.537 9.215) rotate(180)"/><rect class="g" width="2.923" height="5.056" transform="translate(10.457 9.215) rotate(180)"/></g></g><path class="h" d="M1945.289,1258.615c0-.27,0-.541-.008-.812,0-1.654-.008-3.34-.015-4.739a12.776,12.776,0,0,0-1.655-5.906,16.817,16.817,0,0,0-2.4-3.37l-2.651-2.142-8.905-7.165-.051-.11a2.825,2.825,0,0,0,.519-.71,2.87,2.87,0,0,0,.3-1.283v-5.133a2.885,2.885,0,0,0-2.875-2.876h-.92a2.834,2.834,0,0,0-1.466.413l-6.113-13.2a32.5,32.5,0,0,0-1.41-4.8c-1.668-4.4-6.4-7.4-11.782-7.4h-46.043v0h0v.077h-60.695v65.357h7.55c.667,3.378,2.711,5.856,5.16,5.856h3.4c2.448,0,4.493-2.478,5.16-5.856h15.744c.667,3.378,2.712,5.856,5.16,5.856h3.4c2.448,0,4.492-2.478,5.16-5.856H1885.2a12.235,12.235,0,0,1-.17-2.087c0-.052.014-.1.015-.15l.155,2.237h1.621c.667,3.378,2.712,5.856,5.16,5.856h3.4c2.449,0,4.493-2.478,5.16-5.856h25.385c.667,3.378,2.712,5.856,5.16,5.856h3.4c2.462,0,4.516-2.5,5.172-5.913A6.166,6.166,0,0,0,1945.289,1258.615Z" transform="translate(-1218.679 -723.992)"/><g transform="translate(394.133 408.906)"><g transform="translate(238.62 47.843)"><path class="i" d="M1959.571,1003.731v9.828a5.5,5.5,0,0,1-5.506,5.506H1952.3a5.524,5.524,0,0,1-5.506-5.506v-9.828a5.423,5.423,0,0,1,.8-2.827v-.015a5.521,5.521,0,0,1,4.707-2.664h1.761A5.524,5.524,0,0,1,1959.571,1003.731Z" transform="translate(-1946.797 -998.225)"/><path class="j" d="M1958.994,1027.6a5.522,5.522,0,0,1-4.929,3.049H1952.3a5.524,5.524,0,0,1-5.506-5.506v-9.828a5.423,5.423,0,0,1,.8-2.827C1947.7,1013.09,1950.039,1026.574,1958.994,1027.6Z" transform="translate(-1946.797 -1009.804)"/></g><path class="k" d="M1545.109,1291.652h27.218v-27.47h-28.395Z" transform="translate(-1381.007 -1166.368)"/><path class="l" d="M1429.006,810.815l-133.719,3.3V743.6h87.81a22.308,22.308,0,0,1,19.854,12.135l5.746,11.216Z" transform="translate(-1179.081 -743.598)"/><g transform="translate(167.449 105.133)"><path class="m" d="M1601.4,1318.818c0,7.458,3.847,15.681,3.847,15.681h6.511c5.721,0,10.358-7.021,10.358-15.681s-11.149-15.682-16.87-15.682S1601.4,1310.157,1601.4,1318.818Z" transform="translate(-1594.887 -1303.136)"/><ellipse class="n" cx="10.358" cy="15.682" rx="10.358" ry="15.682"/><ellipse class="o" cx="7.802" cy="11.812" rx="7.802" ry="11.812" transform="translate(2.687 3.869)"/></g><g transform="translate(242.32 105.133)"><path class="m" d="M1999.878,1318.818c0,7.458,3.847,15.681,3.847,15.681h6.512c5.721,0,10.359-7.021,10.359-15.681s-11.149-15.682-16.87-15.682S1999.878,1310.157,1999.878,1318.818Z" transform="translate(-1993.366 -1303.136)"/><path class="n" d="M1966.491,1318.818c0,8.661,4.637,15.681,10.358,15.681s10.358-7.021,10.358-15.681-4.638-15.682-10.358-15.682S1966.491,1310.157,1966.491,1318.818Z" transform="translate(-1966.491 -1303.136)"/><path class="o" d="M1980.79,1335.541c0,6.524,3.493,11.812,7.8,11.812s7.8-5.288,7.8-11.812-3.493-11.812-7.8-11.812S1980.79,1329.018,1980.79,1335.541Z" transform="translate(-1978.103 -1319.86)"/></g><g transform="translate(70.386 105.133)"><path class="m" d="M1084.81,1318.818c0,7.458,3.847,15.681,3.847,15.681h6.511c5.721,0,10.358-7.021,10.358-15.681s-11.149-15.682-16.87-15.682S1084.81,1310.157,1084.81,1318.818Z" transform="translate(-1078.298 -1303.136)"/><path class="n" d="M1051.423,1318.818c0,8.661,4.638,15.681,10.358,15.681s10.358-7.021,10.358-15.681-4.638-15.682-10.358-15.682S1051.423,1310.157,1051.423,1318.818Z" transform="translate(-1051.423 -1303.136)"/><path class="o" d="M1065.722,1335.541c0,6.524,3.493,11.812,7.8,11.812s7.8-5.288,7.8-11.812-3.493-11.812-7.8-11.812S1065.722,1329.018,1065.722,1335.541Z" transform="translate(-1063.035 -1319.86)"/></g><path class="p" d="M1467.049,1135.639a11.844,11.844,0,0,1-11.841,11.871h-76.7a23.5,23.5,0,0,0,.34-4c0-10.139-6.083-18.369-13.573-18.369-7.5,0-13.588,8.229-13.588,18.369a23.463,23.463,0,0,0,.325,4h-44.819s-1.806-20.012-1.584-30.047c.178-8.733.178-25.843-.341-30.017,0-.622,43.22-.7,54.129-.74,1.48-.016,2.369-.016,2.457-.016l.148.1.163.119c2.013,1.406,13.292,9.31,20.293,13.943,6.172,4.071,51.731,5.728,69.6,6.232,4.44.118,7.179.163,7.179.163a32.251,32.251,0,0,1,4.6,6.453,24.466,24.466,0,0,1,3.167,11.309c.015,2.679.029,5.906.029,9.073C1467.049,1134.6,1467.049,1135.121,1467.049,1135.639Z" transform="translate(-1187.187 -1022.226)"/><path class="q" d="M1610.971,924.707h-60.094a3.552,3.552,0,0,1-3.227-2.072l-14.876-33.1a1.64,1.64,0,0,1,1.495-2.309h63.4a3.529,3.529,0,0,1,3.227,2.117l10.657,24.348,2.664,6.084A3.528,3.528,0,0,1,1610.971,924.707Z" transform="translate(-1371.828 -860.243)"/><path class="i" d="M1390.217,855.476c-.015,1.036-.059,2.013-.119,2.887-.429,5.758-6.217,10.538-6.217,10.538h-13.5a23.935,23.935,0,0,0-1.584-13.425c-2.383-5.358-6.7-8.94-11.648-8.94-4.959,0-9.281,3.582-11.664,8.94a24.24,24.24,0,0,0-1.6,13.425h-48.623V743.621H1334.3v24.866s11.708,27.5,16.977,39.609c1.3,3.019,2.22,5.077,2.457,5.521,1.169,2.235,28.374,16,32.874,20.056C1389.106,835.923,1390.35,847.616,1390.217,855.476Z" transform="translate(-1179.063 -743.617)"/><path class="q" d="M1441.086,896.126l12.8,31.529h-21.964s-4.506-.754-5.083-9.962c-.617-9.83-.615-26.793-.615-26.793l9.64-.047C1439.539,891.408,1440.115,893.426,1441.086,896.126Z" transform="translate(-1285.416 -863.185)"/><path class="p" d="M1703.811,1107.25h-71.225l-26.006-20.456-.148-.1h71.846l20.456,16.459Z" transform="translate(-1431.764 -1022.226)"/><path class="c" d="M2093.737,1184.844a2.4,2.4,0,0,1-1.525,1.229l-9.991,1.851c-.844.163-1.5-1.3-1.273-2.812l.977-6.72.03-.163.193-1.377a2.9,2.9,0,0,1,1.332-2.339l.578-.222,5.077,4.1A32.261,32.261,0,0,1,2093.737,1184.844Z" transform="translate(-1817.087 -1093.367)"/><path class="r" d="M1741.006,1202.631l-6.438-.637a5.044,5.044,0,0,1-4.47-4.13l-1.48-8.141a1.124,1.124,0,0,1-.03-.384c4.589,2.634,8.452,4.988,9.917,6.305C1739.571,1196.606,1740.414,1199.271,1741.006,1202.631Z" transform="translate(-1530.963 -1105.588)"/><path class="c" d="M1753.232,1191.638l-12.211-1.213h-.015l-6.438-.637a5.044,5.044,0,0,1-4.47-4.13l-1.48-8.141a1.123,1.123,0,0,1-.03-.384v-.015a2.709,2.709,0,0,1,3.256-2.753l19.02,3.863a3.276,3.276,0,0,1,2.5,2.339l2.235,8.259A2.229,2.229,0,0,1,1753.232,1191.638Z" transform="translate(-1530.963 -1093.382)"/><path class="s" d="M1527.687,766.954h-74.2a42.909,42.909,0,0,0-2.149-10.17c-1.658-4.789-4.522-10.13-9.536-13.178h60.633c9.884,0,18.642,5.279,22.121,13.178a10.192,10.192,0,0,1,.43.982A61.963,61.963,0,0,1,1527.687,766.954Z" transform="translate(-1298.067 -743.604)"/><path class="q" d="M1741.021,1202.565l-6.453-.637a5.044,5.044,0,0,1-4.47-4.13l-1.48-8.141a1.213,1.213,0,0,1-.03-.4c4.589,2.649,8.452,5,9.917,6.32C1739.571,1196.541,1740.414,1199.2,1741.021,1202.565Z" transform="translate(-1530.963 -1105.522)"/><path class="t" d="M1776.751,1340.487c.015,6.557-5.55,11.871-12.418,11.871h-76.124a23.939,23.939,0,0,0-1.584-13.425h90.112C1776.751,1339.451,1776.751,1339.969,1776.751,1340.487Z" transform="translate(-1496.889 -1227.074)"/><path class="t" d="M1343.563,1348.362a23.428,23.428,0,0,0,.326,4h-48.623v-13.425h50.221A23.462,23.462,0,0,0,1343.563,1348.362Z" transform="translate(-1179.063 -1227.074)"/><path class="u" d="M1892.758,1199.192h29.126c.931,0,1.642,1.255,1.5,2.645l-1.034,10.122c-.152,1.489-1,2.587-2,2.587h-24c-1.538,0-2.9-1.522-3.343-3.749l-1.728-8.606C1890.987,1200.7,1891.726,1199.192,1892.758,1199.192Z" transform="translate(-1663.042 -1113.589)"/><path class="c" d="M1673.4,913.695c-34.354-1.761-57.592-20.145-64.608-26.465h50.725a3.529,3.529,0,0,1,3.227,2.117Z" transform="translate(-1433.682 -860.243)"/><rect class="v" width="129.943" height="125.293" transform="translate(0 0)"/><path class="w" d="M0,0H129.943L13.793,85.094,0,125.293Z" transform="translate(0 0)"/><path class="k" d="M1516.389,1000.558s1.111,12.743-5.179,16.232h11.752Z" transform="translate(-1354.433 -952.277)"/><path class="k" d="M1535.512,1031.015s-2.654-1.888-2.881-3.454v8.912h3.472Z" transform="translate(-1371.829 -974.206)"/><g transform="translate(148.025 47.843)"><path class="s" d="M1477.408,1003.731v9.828a5.5,5.5,0,0,1-5.506,5.506h-1.761a5.524,5.524,0,0,1-5.506-5.506v-9.828a5.421,5.421,0,0,1,.8-2.827v-.015a5.52,5.52,0,0,1,4.707-2.664h1.761A5.525,5.525,0,0,1,1477.408,1003.731Z" transform="translate(-1464.634 -998.225)"/><path class="x" d="M1476.83,1027.6a5.522,5.522,0,0,1-4.929,3.049h-1.761a5.524,5.524,0,0,1-5.506-5.506v-9.828a5.421,5.421,0,0,1,.8-2.827C1465.537,1013.09,1467.876,1026.574,1476.83,1027.6Z" transform="translate(-1464.634 -1009.804)"/></g><path class="k" d="M762.69,1309.159H730.726c-.675-2.885-2.708-23.43,15.2-23.43C762.209,1285.727,763.406,1304.472,762.69,1309.159Z" transform="translate(-720.248 -1183.866)"/><g transform="translate(13.972 105.133)"><path class="m" d="M784.561,1318.818c0,7.458,3.847,15.681,3.847,15.681h6.512c5.721,0,10.358-7.021,10.358-15.681s-11.149-15.682-16.87-15.682S784.561,1310.157,784.561,1318.818Z" transform="translate(-778.049 -1303.136)"/><path class="n" d="M751.175,1318.818c0,8.661,4.637,15.681,10.358,15.681s10.358-7.021,10.358-15.681-4.638-15.682-10.358-15.682S751.175,1310.157,751.175,1318.818Z" transform="translate(-751.175 -1303.136)"/><path class="o" d="M765.473,1335.541c0,6.524,3.493,11.812,7.8,11.812s7.8-5.288,7.8-11.812-3.493-11.812-7.8-11.812S765.473,1329.018,765.473,1335.541Z" transform="translate(-762.787 -1319.86)"/></g><path class="x" d="M1568.9,823.913h-74.2a42.908,42.908,0,0,0-2.149-10.17h73.218a10.2,10.2,0,0,1,.43.982A61.978,61.978,0,0,1,1568.9,823.913Z" transform="translate(-1339.284 -800.563)"/></g><path class="y" d="M1454.13,331.14a20.757,20.757,0,0,0-20.757,20.757c0,11.464,20.757,36.95,20.757,36.95s20.757-25.486,20.757-36.95A20.757,20.757,0,0,0,1454.13,331.14Zm0,30.248a9.7,9.7,0,1,1,9.7-9.7A9.7,9.7,0,0,1,1454.13,361.388Z" transform="translate(-609.321 19.27)"/><path class="z" d="M2529.042,1228.347s-34.651.056-87.5.169c-.789-.339-1.211-.535-1.211-.535s5.972-32.679,36.961-39.694,31.355-36.961,50.709-42.934c15.917-4.9,30.144,1.578,39.806-.084C2583.076,1193.583,2529.042,1228.347,2529.042,1228.347Z" transform="translate(-1694.033 -682.555)"/><rect class="m" width="741.357" height="2.717" rx="1.358" transform="translate(183.649 545.428)"/><g transform="translate(569.515 301.468)"><path class="aa" d="M135.835,196.49c2.8.651,5.582,2.874,8.363,5.483l-1.151,1.487c-3.63-.86-7.207-1.637-9.157-3.378a2.312,2.312,0,0,1-.724-2.938l.017-.034A1.858,1.858,0,0,1,135.835,196.49Z"/><path class="aa" d="M125.143,191.9a65.232,65.232,0,0,0,8.747,8.186l2.655-2.6a21.385,21.385,0,0,0-8.026-8.325c-.818-.839-2.325-1.459-3.269-.474A2.19,2.19,0,0,0,125.143,191.9Z"/><path class="aa" d="M130.6,190.584l1.9,1.42-3.31,4.151-4.235-4.213C122.721,189.745,127.19,185.028,130.6,190.584Z"/><path class="aa" d="M150.629,205.05l.017-.044a2.357,2.357,0,0,0-1.363-3.041l-5.555-2.117-1.695,4.449,5.555,2.116A2.356,2.356,0,0,0,150.629,205.05Z"/><path class="aa" d="M148.944,200.708l0-.015a.768.768,0,0,0-.913-.586l-2.3.5-2-.762-1.4,3.684a3,3,0,0,0,3.825-1.428l2.21-.483A.766.766,0,0,0,148.944,200.708Z"/><path class="aa" d="M126.586,209.465l8.981.66-.456-15.307a9.634,9.634,0,0,0-.88-3.772,9.752,9.752,0,0,0-2.351-3.281l-1.438-1.3L124,186.074c-.2,1.1-.372,2.181-.49,3.213C122.611,196.78,123.947,202.988,126.586,209.465Z"/><path class="aa" d="M123.994,186.075l.612-5.119c1.59-.1,5.1-.113,5.461-.206l.369,5.71S125.279,186.959,123.994,186.075Z"/><path class="aa" d="M124.192,181.594a8.989,8.989,0,0,1-.581-2.937c-.144-4.388,2.762-4.266,4.386-4.37,1.9-.039,3.778,1.126,4.068,4.034a4.963,4.963,0,0,1-.177.534l.73,1.588a.471.471,0,0,1-.3.649l-.411.142c.011.294.128,1.551.128,1.551.021.743-.326,1.767-1.223,1.8l-.945.029a3.482,3.482,0,0,1-3.006-3.235C126.167,181.346,124.5,182.224,124.192,181.594Z"/><path class="aa" d="M123.377,178.584a8.822,8.822,0,0,0,.032,1.275v.008c.126,1.272.6,2.328,1.689,2.607,1.4.214,1.738-.385,1.7-1.091v-.009a4.505,4.505,0,0,0-.542-1.671c.157.205.728.995.95,1.247l.008.009c.486-.038.486-.038.914-.1-.027-1.495-.176-2.649-.076-3.458a2.589,2.589,0,0,1,.066-.377.025.025,0,0,1,.009-.017,1.1,1.1,0,0,1,.159-.372,1.081,1.081,0,0,1,.538-.467c.21-.1-.054-.224.27-.246a7.244,7.244,0,0,1,1.253.043c.16.018.337.038.522.066.8-.188,1.609-2.709-3.341-2.242a4.181,4.181,0,0,0-3.948,3.082,2.929,2.929,0,0,0-.075.386,1.038,1.038,0,0,0-.039.227c0,.05-.015.1-.018.151C123.408,177.95,123.388,178.271,123.377,178.584Z"/><path class="aa" d="M125.736,179.975c.047.686.68,1.438,1.128,1.408s.361-.584.321-1.27c-.026-.454.045-1.107-.457-1.217C126.289,178.8,125.668,178.969,125.736,179.975Z"/><path class="aa" d="M119.918,237.693c-.222-.024-.553-.032-1.27,1.913l9.583,3.668C129.237,240.646,122.451,237.961,119.918,237.693Z"/><rect class="aa" width="0.858" height="10.262" transform="translate(118.426 240.185) rotate(-69.055)"/><path class="aa" d="M134.732,241.658c-.216.058-.527.168-.5,2.241h10.261C144.491,241.085,137.194,241,134.732,241.658Z"/><rect class="aa" width="10.263" height="0.823" transform="translate(134.228 243.67)"/><path class="aa" d="M126.589,210.959a5.747,5.747,0,0,0,.117,1.307l.261,1.442,1.882,10.489a2.877,2.877,0,0,0,.083.341,3.1,3.1,0,0,0,3.525,2.274l.062-.013a3.228,3.228,0,0,0,2.475-3.792l-1.212-6.756-.931-5.182a3.9,3.9,0,0,0-.781-2.093,3.129,3.129,0,0,0-2.168-1.2A3.014,3.014,0,0,0,126.589,210.959Z"/><path class="aa" d="M119.1,238.422l9.807-15.994a3.087,3.087,0,0,1,4.358-.861l.051.037a3.27,3.27,0,0,1,.681,4.489l-8.717,13.441Z"/><path class="aa" d="M128.987,211.6a5.773,5.773,0,0,0,.235,1.289l.39,1.409,2.823,10.244a2.478,2.478,0,0,0,.113.331,3.046,3.046,0,0,0,3.712,1.893l.061-.018a3.281,3.281,0,0,0,2.12-4.035l-1.819-6.6-1.395-5.061a3.844,3.844,0,0,0-.967-2,3.069,3.069,0,0,0-5.273,2.55Z"/><path class="aa" d="M134.228,242.92l-1.71-18.309a3.214,3.214,0,0,1,2.8-3.548l.062-.006a3.143,3.143,0,0,1,3.366,2.936l1.324,17.328Z"/><path class="aa" d="M130.86,215.034l4.714.3v-5.22c-2.9-2.64-5.931-4.649-9.8-2.773l.176,3.841C126.372,215.337,128.517,214.883,130.86,215.034Z"/><path class="aa" d="M123.508,189.287c2.418-4.989,7.966-2.1,9.539,2.013l1.184-.254a9.752,9.752,0,0,0-2.351-3.281l-1.438-1.3L124,186.074C123.795,187.173,123.626,188.255,123.508,189.287Z"/><path class="aa" d="M125.438,173.587l3.1-.428a3.132,3.132,0,0,1,3.341,3.3l-.039.71-8.4.469-.019-1.355C123.425,175.168,123.852,173.734,125.438,173.587Z"/><path class="aa" d="M129.006,177.327l3.647.76a1.807,1.807,0,0,0,2.183-1.228,28.979,28.979,0,0,1-2.954-.4Z"/><rect class="aa" width="20.758" height="20.398" transform="matrix(0.995, -0.095, 0.095, 0.995, 134.498, 189.668)"/><rect class="aa" width="16.057" height="15.697" transform="matrix(0.995, -0.095, 0.095, 0.995, 137.061, 191.785)"/><rect class="aa" width="2.587" height="14.584" transform="translate(137.693 192.284) rotate(-5.44)"/><rect class="aa" width="2.587" height="14.584" transform="translate(140.755 191.992) rotate(-5.438)"/><rect class="aa" width="2.587" height="14.583" transform="translate(143.817 191.701) rotate(-5.44)"/><rect class="aa" width="2.587" height="14.584" transform="translate(146.88 191.409) rotate(-5.438)"/><rect class="aa" width="2.587" height="14.584" transform="translate(149.942 191.118) rotate(-5.438)"/><path class="aa" d="M135.128,198c2.629,1.159,4.954,3.858,7.2,6.937l-1.406,1.249c-3.409-1.518-6.78-2.944-8.373-5.016a2.31,2.31,0,0,1-.168-3.021l.023-.03A1.858,1.858,0,0,1,135.128,198Z"/><path class="aa" d="M125.469,191.493a64.891,64.891,0,0,0,7.05,9.621l3.076-2.056a21.278,21.278,0,0,0-6.317-9.624c-.646-.972-2.006-1.856-3.111-1.066A2.179,2.179,0,0,0,125.469,191.493Z"/><path class="aa" d="M131.329,191.042l1.323,1.914-4,3.451-3.367-4.9C123.5,188.942,128.04,185.28,131.329,191.042Z"/><path class="aa" d="M147.232,204.535l0-.016a.873.873,0,0,0-.864-.761l-2.7.108.217,1.6,2.7-.108A.7.7,0,0,0,147.232,204.535Z"/><path class="aa" d="M148.583,209.258l.02-.043a2.659,2.659,0,0,0-1.128-3.34l-5.36-3.163-2.014,4.215,5.361,3.163A2.153,2.153,0,0,0,148.583,209.258Z"/><path class="ab" d="M135.835,196.49c2.8.651,5.582,2.874,8.363,5.483l-1.151,1.487c-3.63-.86-7.207-1.637-9.157-3.378a2.312,2.312,0,0,1-.724-2.938l.017-.034A1.858,1.858,0,0,1,135.835,196.49Z"/><path class="ab" d="M125.143,191.9a65.232,65.232,0,0,0,8.747,8.186l2.655-2.6a21.385,21.385,0,0,0-8.026-8.325c-.818-.839-2.325-1.459-3.269-.474A2.19,2.19,0,0,0,125.143,191.9Z"/><path class="ac" d="M130.6,190.584l1.9,1.42-3.31,4.151-4.235-4.213C122.721,189.745,127.19,185.028,130.6,190.584Z"/><path class="ad" d="M150.629,205.05l.017-.044a2.357,2.357,0,0,0-1.363-3.041l-5.555-2.117-1.695,4.449,5.555,2.116A2.356,2.356,0,0,0,150.629,205.05Z"/><path class="ac" d="M148.944,200.708l0-.015a.768.768,0,0,0-.913-.586l-2.3.5-2-.762-1.4,3.684a3,3,0,0,0,3.825-1.428l2.21-.483A.766.766,0,0,0,148.944,200.708Z"/><path class="ae" d="M126.586,209.465l8.981.66-.456-15.307a9.634,9.634,0,0,0-.88-3.772,9.752,9.752,0,0,0-2.351-3.281l-1.438-1.3L124,186.074c-.2,1.1-.372,2.181-.49,3.213C122.611,196.78,123.947,202.988,126.586,209.465Z"/><path class="ab" d="M123.994,186.075l.612-5.119c1.59-.1,5.1-.113,5.461-.206l.369,5.71S125.279,186.959,123.994,186.075Z"/><path class="af" d="M124.192,181.594a8.989,8.989,0,0,1-.581-2.937c-.144-4.388,2.762-4.266,4.386-4.37,1.9-.039,3.778,1.126,4.068,4.034a4.963,4.963,0,0,1-.177.534l.73,1.588a.471.471,0,0,1-.3.649l-.411.142c.011.294.128,1.551.128,1.551.021.743-.326,1.767-1.223,1.8l-.945.029a3.482,3.482,0,0,1-3.006-3.235C126.167,181.346,124.5,182.224,124.192,181.594Z"/><path class="ag" d="M123.377,178.584a8.822,8.822,0,0,0,.032,1.275v.008c.126,1.272.6,2.328,1.689,2.607,1.4.214,1.738-.385,1.7-1.091v-.009a4.505,4.505,0,0,0-.542-1.671c.157.205.728.995.95,1.247l.008.009c.486-.038.486-.038.914-.1-.027-1.495-.176-2.649-.076-3.458a2.589,2.589,0,0,1,.066-.377.025.025,0,0,1,.009-.017,1.1,1.1,0,0,1,.159-.372,1.081,1.081,0,0,1,.538-.467c.21-.1-.054-.224.27-.246a7.244,7.244,0,0,1,1.253.043c.16.018.337.038.522.066.8-.188,1.609-2.709-3.341-2.242a4.181,4.181,0,0,0-3.948,3.082,2.929,2.929,0,0,0-.075.386,1.038,1.038,0,0,0-.039.227c0,.05-.015.1-.018.151C123.408,177.95,123.388,178.271,123.377,178.584Z"/><path class="af" d="M125.736,179.975c.047.686.68,1.438,1.128,1.408s.361-.584.321-1.27c-.026-.454.045-1.107-.457-1.217C126.289,178.8,125.668,178.969,125.736,179.975Z"/><path class="ah" d="M119.918,237.693c-.222-.024-.553-.032-1.27,1.913l9.583,3.668C129.237,240.646,122.451,237.961,119.918,237.693Z"/><rect class="ai" width="0.858" height="10.262" transform="translate(118.426 240.185) rotate(-69.055)"/><path class="ah" d="M134.732,241.658c-.216.058-.527.168-.5,2.241h10.261C144.491,241.085,137.194,241,134.732,241.658Z"/><rect class="ai" width="10.263" height="0.823" transform="translate(134.228 243.67)"/><path class="aj" d="M126.589,210.959a5.747,5.747,0,0,0,.117,1.307l.261,1.442,1.882,10.489a2.877,2.877,0,0,0,.083.341,3.1,3.1,0,0,0,3.525,2.274l.062-.013a3.228,3.228,0,0,0,2.475-3.792l-1.212-6.756-.931-5.182a3.9,3.9,0,0,0-.781-2.093,3.129,3.129,0,0,0-2.168-1.2A3.014,3.014,0,0,0,126.589,210.959Z"/><path class="aj" d="M119.1,238.422l9.807-15.994a3.087,3.087,0,0,1,4.358-.861l.051.037a3.27,3.27,0,0,1,.681,4.489l-8.717,13.441Z"/><path class="ae" d="M128.987,211.6a5.773,5.773,0,0,0,.235,1.289l.39,1.409,2.823,10.244a2.478,2.478,0,0,0,.113.331,3.046,3.046,0,0,0,3.712,1.893l.061-.018a3.281,3.281,0,0,0,2.12-4.035l-1.819-6.6-1.395-5.061a3.844,3.844,0,0,0-.967-2,3.069,3.069,0,0,0-5.273,2.55Z"/><path class="ae" d="M134.228,242.92l-1.71-18.309a3.214,3.214,0,0,1,2.8-3.548l.062-.006a3.143,3.143,0,0,1,3.366,2.936l1.324,17.328Z"/><path class="ae" d="M130.86,215.034l4.714.3v-5.22c-2.9-2.64-5.931-4.649-9.8-2.773l.176,3.841C126.372,215.337,128.517,214.883,130.86,215.034Z"/><path class="ak" d="M123.508,189.287c2.418-4.989,7.966-2.1,9.539,2.013l1.184-.254a9.752,9.752,0,0,0-2.351-3.281l-1.438-1.3L124,186.074C123.795,187.173,123.626,188.255,123.508,189.287Z"/><path class="ae" d="M125.438,173.587l3.1-.428a3.132,3.132,0,0,1,3.341,3.3l-.039.71-8.4.469-.019-1.355C123.425,175.168,123.852,173.734,125.438,173.587Z"/><path class="aj" d="M129.006,177.327l3.647.76a1.807,1.807,0,0,0,2.183-1.228,28.979,28.979,0,0,1-2.954-.4Z"/><rect class="aa" width="20.758" height="20.398" transform="matrix(0.995, -0.095, 0.095, 0.995, 134.498, 189.668)"/><rect class="al" width="16.057" height="15.697" transform="matrix(0.995, -0.095, 0.095, 0.995, 137.061, 191.785)"/><rect class="aa" width="2.587" height="14.584" transform="translate(137.693 192.284) rotate(-5.44)"/><rect class="aa" width="2.587" height="14.584" transform="translate(140.755 191.992) rotate(-5.438)"/><rect class="aa" width="2.587" height="14.583" transform="translate(143.817 191.701) rotate(-5.44)"/><rect class="aa" width="2.587" height="14.584" transform="translate(146.88 191.409) rotate(-5.438)"/><rect class="aa" width="2.587" height="14.584" transform="translate(149.942 191.118) rotate(-5.438)"/><path class="am" d="M135.128,198c2.629,1.159,4.954,3.858,7.2,6.937l-1.406,1.249c-3.409-1.518-6.78-2.944-8.373-5.016a2.31,2.31,0,0,1-.168-3.021l.023-.03A1.858,1.858,0,0,1,135.128,198Z"/><path class="am" d="M125.469,191.493a64.891,64.891,0,0,0,7.05,9.621l3.076-2.056a21.278,21.278,0,0,0-6.317-9.624c-.646-.972-2.006-1.856-3.111-1.066A2.179,2.179,0,0,0,125.469,191.493Z"/><path class="an" d="M131.329,191.042l1.323,1.914-4,3.451-3.367-4.9C123.5,188.942,128.04,185.28,131.329,191.042Z"/><path class="ao" d="M147.232,204.535l0-.016a.873.873,0,0,0-.864-.761l-2.7.108.217,1.6,2.7-.108A.7.7,0,0,0,147.232,204.535Z"/><path class="ao" d="M148.583,209.258l.02-.043a2.659,2.659,0,0,0-1.128-3.34l-5.36-3.163-2.014,4.215,5.361,3.163A2.153,2.153,0,0,0,148.583,209.258Z"/></g></g></svg>