<svg xmlns="http://www.w3.org/2000/svg" width="19.481" height="19.48" viewBox="0 0 19.481 19.48">
  <path id="Union_10" data-name="Union 10" d="M53.013-1154.572a9.739,9.739,0,0,1-6.013-9h1.3a8.448,8.448,0,0,0,8.438,8.441,8.45,8.45,0,0,0,8.442-8.441,8.452,8.452,0,0,0-8.442-8.442,8.457,8.457,0,0,0-6.092,2.6h3.159v1.3h-5.2v-5.2h1.3v2.8a9.743,9.743,0,0,1,6.833-2.8,9.733,9.733,0,0,1,9,6.013,9.733,9.733,0,0,1-2.11,10.611,9.747,9.747,0,0,1-6.892,2.856A9.753,9.753,0,0,1,53.013-1154.572Zm3.73-3.877v-1.221a2.864,2.864,0,0,1-1.473-.745,2.081,2.081,0,0,1-.625-1.433H55.89q.107,1.2,1.7,1.2a1.708,1.708,0,0,0,1.166-.32.923.923,0,0,0,.346-.692,1.088,1.088,0,0,0-.356-.8,3.055,3.055,0,0,0-1.343-.583q-2.658-.637-2.656-2.339a1.761,1.761,0,0,1,.557-1.312,2.8,2.8,0,0,1,1.436-.73v-1.222h1.7v1.249a2.333,2.333,0,0,1,1.312.793,2.24,2.24,0,0,1,.492,1.357H59c-.039-.8-.5-1.2-1.408-1.2a1.951,1.951,0,0,0-1.132.289.906.906,0,0,0-.409.771.835.835,0,0,0,.372.681,4.373,4.373,0,0,0,1.327.541,5.063,5.063,0,0,1,1.94.85,1.934,1.934,0,0,1,.715,1.621,1.747,1.747,0,0,1-.545,1.354,2.727,2.727,0,0,1-1.417.666v1.221Z" transform="translate(-47 1173.309)" fill="#f5f5f5"/>
</svg>
