<svg xmlns="http://www.w3.org/2000/svg" width="22.001" height="17.247" viewBox="0 0 22.001 17.247"><defs><style>.a{fill:#f5f5f5;}</style></defs><path class="a" d="M13.468,14.928H8.534a3.143,3.143,0,0,1-6.066,0H.786A.786.786,0,0,1,0,14.143V.786A.785.785,0,0,1,.786,0H15.715A.785.785,0,0,1,16.5.786V2.357h2.357a.785.785,0,0,1,.723.479l2.357,5.5A.8.8,0,0,1,22,8.643v5.5a.786.786,0,0,1-.786.786H19.534a3.143,3.143,0,0,1-6.066,0Zm1.462-.786A1.571,1.571,0,1,0,16.5,12.571,1.571,1.571,0,0,0,14.929,14.143Zm-11,0A1.571,1.571,0,1,0,5.5,12.571,1.572,1.572,0,0,0,3.929,14.143ZM16.5,11a3.143,3.143,0,0,1,3.033,2.357h.9V9.428H16.5ZM8.534,13.357h4.933a3.141,3.141,0,0,1,1.462-1.917V1.571H1.571V13.357h.9a3.143,3.143,0,0,1,6.066,0Zm7.967-5.5h3.52L18.338,3.928H16.5Zm-7,2.016a.665.665,0,0,1-.665-.665V5.217A.664.664,0,0,1,9.5,4.552H13.5a.664.664,0,0,1,.665.665V9.208a.665.665,0,0,1-.665.665Zm-.333-.665a.32.32,0,0,0,.1.237.324.324,0,0,0,.234.1h2V7.213h2.327v-2a.327.327,0,0,0-.332-.333h-2V7.213H9.172Zm-1.516.665H3.665A.665.665,0,0,1,3,9.208V5.217a.664.664,0,0,1,.665-.665H7.656a.665.665,0,0,1,.665.665V9.208a.667.667,0,0,1-.665.665ZM3.333,9.208a.316.316,0,0,0,.1.237.322.322,0,0,0,.233.1h2V7.213H7.988v-2a.329.329,0,0,0-.333-.333h-2V7.213H3.333Z"/></svg>